<?xml version="1.0" encoding="UTF-8" standalone="no"?>
<svg width="90px" height="74px" viewBox="0 0 90 74" version="1.1" xmlns="http://www.w3.org/2000/svg" xmlns:xlink="http://www.w3.org/1999/xlink">
    <!-- Generator: Sketch 3.7 (28169) - http://www.bohemiancoding.com/sketch -->
    <title>Shape</title>
    <desc>Created with Sketch.</desc>
    <defs></defs>
    <g id="Page-1" stroke="none" stroke-width="1" fill="none" fill-rule="evenodd">
        <path d="M36.579,59.585 C37.067,59.585 37.462,59.19 37.462,58.702 L37.462,41.064 C37.462,40.576 37.067,40.181 36.579,40.181 L13.062,40.181 C12.574,40.181 12.179,40.576 12.179,41.064 L12.179,58.702 C12.179,59.19 12.574,59.585 13.062,59.585 L36.579,59.585 L36.579,59.585 Z M13.944,41.946 L35.696,41.946 L35.696,57.819 L13.944,57.819 L13.944,41.946 L13.944,41.946 Z M85.476,35.399 C84.989,35.399 84.594,35.794 84.594,36.282 L84.594,68.66 C84.594,70.406 83.174,71.825 81.428,71.825 L75.127,71.825 L75.127,41.065 C75.127,40.577 74.732,40.182 74.244,40.182 L53.298,40.182 C52.811,40.182 52.417,40.577 52.417,41.065 L52.417,71.825 L8.571,71.825 C6.825,71.825 5.406,70.406 5.406,68.66 L5.406,36.282 C5.406,35.794 5.01,35.399 4.523,35.399 C4.036,35.399 3.641,35.794 3.641,36.282 L3.641,68.66 C3.641,71.378 5.852,73.59 8.571,73.59 L53.298,73.59 L74.244,73.59 L81.428,73.59 C84.147,73.59 86.358,71.379 86.358,68.66 L86.358,36.282 C86.358,35.794 85.963,35.399 85.476,35.399 L85.476,35.399 Z M73.361,71.825 L54.181,71.825 L54.181,41.946 L73.362,41.946 L73.362,71.825 L73.361,71.825 Z M89.866,18.729 C89.821,18.602 89.75,18.487 89.656,18.394 L78.463,0.544 C78.302,0.287 78.02,0.13 77.715,0.13 L12.392,0.13 C12.089,0.13 11.808,0.285 11.646,0.541 L0.348,18.39 C0.251,18.484 0.179,18.601 0.133,18.731 C-0.025,18.982 -0.041,19.294 0.08,19.563 L0.08,27.115 C0.08,27.144 0.081,27.172 0.084,27.199 C0.15,30.673 3.012,33.486 6.5,33.486 C8.771,33.486 10.824,32.266 11.969,30.418 C13.099,32.283 15.137,33.486 17.455,33.486 C19.749,33.486 21.803,32.256 22.936,30.39 C24.075,32.256 26.13,33.486 28.421,33.486 C30.713,33.486 32.768,32.256 33.905,30.389 C35.04,32.256 37.093,33.486 39.386,33.486 C41.681,33.486 43.738,32.257 44.876,30.393 C46.009,32.257 48.063,33.486 50.359,33.486 C52.653,33.486 54.709,32.257 55.848,30.394 C56.98,32.257 59.034,33.486 61.332,33.486 C63.627,33.486 65.683,32.257 66.82,30.393 C67.954,32.257 70.008,33.486 72.305,33.486 C74.699,33.486 76.799,32.162 77.902,30.207 C79.006,32.162 81.105,33.486 83.499,33.486 C87.006,33.486 89.881,30.642 89.916,27.142 C89.917,27.117 89.919,27.092 89.919,27.065 L89.919,19.563 C90.042,19.294 90.025,18.982 89.866,18.729 L89.866,18.729 Z M12.876,1.895 L77.228,1.895 L87.414,18.141 L2.594,18.141 L12.876,1.895 L12.876,1.895 Z M88.155,27.042 C88.154,27.063 88.152,27.086 88.152,27.108 C88.135,29.651 86.047,31.721 83.499,31.721 C80.951,31.721 78.863,29.652 78.846,27.108 C78.842,26.624 78.448,26.233 77.963,26.233 L77.842,26.233 C77.356,26.233 76.963,26.624 76.959,27.108 C76.941,29.651 74.854,31.721 72.306,31.721 C69.983,31.721 68.002,29.987 67.699,27.687 C67.641,27.248 67.267,26.92 66.825,26.92 L66.823,26.92 C66.382,26.92 66.008,27.247 65.948,27.685 C65.639,29.986 63.654,31.721 61.332,31.721 C59.008,31.721 57.028,29.988 56.728,27.689 C56.67,27.25 56.297,26.922 55.855,26.92 L55.854,26.92 C55.412,26.92 55.038,27.246 54.979,27.684 C54.666,29.986 52.68,31.721 50.359,31.721 C48.036,31.721 46.056,29.987 45.755,27.687 C45.697,27.249 45.323,26.921 44.881,26.92 L44.879,26.92 C44.438,26.92 44.064,27.246 44.004,27.684 C43.692,29.986 41.707,31.721 39.385,31.721 C37.068,31.721 35.088,29.986 34.781,27.686 C34.722,27.248 34.349,26.92 33.907,26.92 C33.907,26.92 33.907,26.92 33.906,26.92 C33.465,26.92 33.091,27.246 33.031,27.684 C32.718,29.985 30.735,31.721 28.418,31.721 C26.102,31.721 24.118,29.985 23.805,27.684 C23.745,27.246 23.373,26.92 22.931,26.92 C22.931,26.92 22.931,26.92 22.93,26.92 C22.488,26.92 22.116,27.248 22.057,27.686 C21.75,29.987 19.77,31.721 17.452,31.721 C15.128,31.721 13.192,30.053 12.848,27.755 C12.784,27.322 12.411,27.004 11.975,27.004 C11.538,27.004 11.167,27.323 11.102,27.755 C10.764,30.016 8.783,31.721 6.497,31.721 C3.949,31.721 1.862,29.652 1.845,27.108 C1.845,27.086 1.844,27.063 1.842,27.042 L1.842,20.081 L88.153,20.081 L88.153,27.042 L88.155,27.042 Z" id="Shape" fill="#55443D"></path>
    </g>
</svg>