<?xml version="1.0" encoding="UTF-8" standalone="no"?>
<svg width="340px" height="162px" viewBox="0 0 340 162" version="1.1" xmlns="http://www.w3.org/2000/svg" xmlns:xlink="http://www.w3.org/1999/xlink">
    <!-- Generator: Sketch 3.6.1 (26313) - http://www.bohemiancoding.com/sketch -->
    <title>etsy-3 copy</title>
    <desc>Created with Sketch.</desc>
    <defs></defs>
    <g id="Page-1" stroke="none" stroke-width="1" fill="none" fill-rule="evenodd">
        <g id="etsy-3-copy" fill="#F38A8A">
            <path d="M36.783,58.639 L36.783,13.192 C36.783,11.508 36.951,10.498 39.814,10.498 L78.359,10.498 C85.093,10.498 88.796,16.222 91.49,26.994 L93.678,35.58 L100.242,35.58 C101.419,11.174 102.428,0.569 102.428,0.569 C102.428,0.569 85.933,2.42 76.17,2.42 L26.854,2.42 L0.423,1.578 L0.423,8.648 L9.346,10.331 C15.574,11.51 17.086,12.855 17.595,18.58 C17.595,18.58 18.101,35.412 18.101,63.187 C18.101,90.958 17.595,107.624 17.595,107.624 C17.595,112.673 15.574,114.524 9.346,115.706 L0.423,117.39 L0.423,124.456 L26.854,123.616 L70.955,123.616 C80.886,123.616 103.946,124.456 103.946,124.456 C104.449,118.395 107.818,90.958 108.323,87.932 L102.095,87.932 L95.53,102.913 C90.311,114.693 82.738,115.536 74.32,115.536 L49.238,115.536 C40.821,115.536 36.781,112.169 36.781,104.932 L36.781,66.553 C36.781,66.553 55.128,66.553 61.523,67.059 C66.237,67.397 69.097,68.743 70.614,75.307 L72.635,84.06 L79.869,84.06 L79.366,62.007 L80.375,39.79 L73.139,39.79 L70.784,49.552 C69.267,55.948 68.259,57.129 61.693,57.8 C54.288,58.644 36.78,58.475 36.78,58.475 L36.78,58.642 L36.783,58.642 L36.783,58.639 L36.783,58.639 Z" id="Shape"></path>
            <path d="M136.599,17.906 C134.242,28.342 131.885,36.421 123.637,41.808 C118.588,45.173 113.537,46.35 111.52,46.519 L111.52,52.915 L126.5,52.915 L126.5,104.59 C126.5,119.068 136.096,126.139 148.887,126.139 C158.819,126.139 169.085,121.931 172.621,113.176 L169.085,108.631 C167.401,111.494 162.018,115.701 155.284,115.701 C147.879,115.701 143.839,110.65 143.839,97.86 L143.839,52.245 L168.753,54.098 L170.098,42.649 L143.84,43.66 L143.84,18.073 L136.599,17.906 L136.599,17.906 Z" id="Shape"></path>
            <path d="M189.791,97.39 L183.395,97.558 C183.731,101.26 183.901,105.975 183.901,110.351 C183.901,114.896 183.733,119.104 183.395,121.123 C183.395,121.123 196.188,125.832 209.149,125.832 C226.655,125.832 240.627,117.416 240.627,100.92 C240.627,72.645 198.209,76.854 198.209,57.83 C198.209,49.92 205.278,46.889 213.021,46.889 C219.081,46.889 224.13,49.077 225.14,52.278 L229.349,64.902 L235.578,64.566 C236.084,57.832 236.419,50.089 237.43,43.862 C232.042,41.505 220.763,40.156 213.699,40.156 C197.199,40.156 183.904,47.395 183.904,63.555 C183.904,91.664 225.31,85.941 225.31,106.648 C225.31,114.051 220.763,119.27 210.498,119.27 C201.074,119.27 196.359,114.39 194.511,109.506 L189.791,97.39 L189.791,97.39 Z" id="Shape"></path>
            <path d="M291.244,116.836 C281.499,144.057 269.57,151.109 258.818,151.109 C254.279,151.109 252.097,149.091 251.422,145.904 L248.902,132.795 L241.844,133.131 C240.5,140.861 239.156,149.433 237.31,156.488 C241.511,159.676 248.564,161.36 254.111,161.36 C265.707,161.36 283.347,159.845 299.474,121.539 L326.527,57.694 C328.713,52.484 329.55,51.98 335.935,49.458 L339.464,48.117 L339.464,42.236 L323.501,43.076 L306.364,42.236 L306.364,48.117 L310.73,49.458 C315.097,50.805 317.117,52.484 317.117,55.509 C317.117,57.02 316.611,58.533 315.769,60.883 C313.249,67.272 297.623,105.242 293.427,113.309 L297.622,111.794 C290.228,93.481 278.976,62.899 277.294,57.695 C276.958,56.686 276.79,55.846 276.79,55.002 C276.79,52.315 278.638,50.13 282.671,49.291 L288.216,48.118 L288.216,42.237 L265.195,43.077 L246.882,42.237 L246.882,48.118 L249.907,49.125 C254.107,50.469 255.116,51.646 257.636,57.526 C271.577,89.451 278.134,106.922 287.035,129.775 L291.244,116.836 L291.244,116.836 Z" id="Shape"></path>
        </g>
    </g>
</svg>