<?xml version="1.0" encoding="UTF-8" standalone="no"?>
<svg width="255px" height="132px" viewBox="0 0 255 132" version="1.1" xmlns="http://www.w3.org/2000/svg" xmlns:xlink="http://www.w3.org/1999/xlink">
    <!-- Generator: Sketch 3.7 (28169) - http://www.bohemiancoding.com/sketch -->
    <title>logoText</title>
    <desc>Created with Sketch.</desc>
    <defs></defs>
    <g id="Page-1" stroke="none" stroke-width="1" fill="none" fill-rule="evenodd">
        <g id="home-bozza-2" transform="translate(-385.000000, -209.000000)">
            <g id="Top">
                <g id="logoText" transform="translate(387.000000, 210.000000)">
                    <text id="HANDMADE-with-LOVE" font-family="RobotoCondensed-Light, Roboto Condensed" font-size="17.2700005" font-style="condensed" font-weight="300" letter-spacing="5" fill="#F38A8A">
                        <tspan x="6.397712" y="129.090909">HANDMADE with LOV</tspan>
                        <tspan x="235.848448" y="129.090909">E</tspan>
                    </text>
                    <text id="Laura’s-touch" font-family="Sacramento-Regular, Sacramento" font-size="57.2909091" font-weight="normal" line-spacing="72" letter-spacing="-0.200000003" fill="#F38A8A">
                        <tspan x="0" y="103.648485">Laura</tspan>
                        <tspan x="130.253152" y="103.939101" font-size="41.5151515" letter-spacing="-0.144927531">’</tspan>
                        <tspan x="133.940673" y="103.648485">s touc</tspan>
                        <tspan x="227.796585" y="103.648485">h</tspan>
                    </text>
                    <g id="logo" transform="translate(84.717608, 0.000000)">
                        <path d="M54.7662973,0 C64.4562494,12.7879449 61.8062318,33.3013139 47.3010067,35.0737209 C45.6196998,21.5793888 54.7662975,14.2531856 73.0729048,15.4513251 C73.578255,30.3708326 66.2207405,40.4348237 52.9925424,40.4348227 C55.9202202,28.905592 73.5782549,27.4403514 80.3882669,32.6674256 C77.9927638,45.0232391 62.8906989,49.5052938 54.7662975,46.4884797 C64.4562494,37.6970358 75.0497579,45.0232391 76.750704,49.7561762 C72.5656393,51.558632 69.1637455,52.8035446 64.4562501,52.8035446 C59.7487547,52.8035446 55.9202193,50.0009775 51.042627,50.0009773 C46.1650347,50.0009771 45.5174354,58.2104048 40.1430016,58.2104048 C34.6663042,58.2104048 34.2232322,50.0009771 29.3456399,50.0009773 C24.4680475,50.0009775 20.6395122,52.8035446 15.9320168,52.8035446 C11.2245214,52.8035446 7.82262755,51.558632 3.63756285,49.7561762 C5.33850892,45.0232391 15.9320174,37.6970358 25.6219694,46.4884797 C17.4975679,49.5052938 2.39550311,45.0232391 0,32.6674256 C6.81001198,27.4403514 24.4680467,28.905592 27.3957245,40.4348227 C14.1675264,40.4348237 6.81001183,30.3708326 7.3153621,15.4513251 C25.6219694,14.2531856 34.768567,21.5793888 33.0872601,35.0737209 C18.5820351,33.3013139 15.9320174,12.7879449 25.6219695,0 C36.2400701,2.53126035 55.369608,21.5793882 40.1430016,33.8693808 C25.0186589,21.5793882 44.1481968,2.53126035 54.7662973,0 Z" id="Path-1" stroke="#F38A8A" stroke-width="1.5"></path>
                        <ellipse id="Oval-1" fill="#F38A8A" cx="37.1554484" cy="44.6898396" rx="1.47150291" ry="2.93048128"></ellipse>
                        <ellipse id="Oval-1-Copy" fill="#F38A8A" cx="42.6735842" cy="44.6898396" rx="1.47150291" ry="2.93048128"></ellipse>
                        <ellipse id="Oval-1-Copy-2" fill="#F38A8A" cx="40.282392" cy="58.7927807" rx="3.4948194" ry="3.47994652"></ellipse>
                    </g>
                </g>
            </g>
        </g>
    </g>
</svg>