<?xml version="1.0" encoding="UTF-8"?>
<svg width="83px" height="64px" viewBox="0 0 83 64" version="1.1" xmlns="http://www.w3.org/2000/svg" xmlns:xlink="http://www.w3.org/1999/xlink">
    <!-- Generator: Sketch 39.1 (31720) - http://www.bohemiancoding.com/sketch -->
    <title>logo</title>
    <desc>Created with Sketch.</desc>
    <defs></defs>
    <g id="Page-1" stroke="none" stroke-width="1" fill="none" fill-rule="evenodd">
        <g id="logo" transform="translate(1.000000, 1.000000)">
            <path d="M55.4839053,0 C65.1738574,12.7879449 62.5238398,33.3013139 48.0186147,35.0737209 C46.3373078,21.5793888 55.4839055,14.2531856 73.7905128,15.4513251 C74.295863,30.3708326 66.9383485,40.4348237 53.7101504,40.4348227 C56.6378282,28.905592 74.2958629,27.4403514 81.1058749,32.6674256 C78.7103718,45.0232391 63.6083069,49.5052938 55.4839055,46.4884797 C65.1738574,37.6970358 75.7673659,45.0232391 77.468312,49.7561762 C73.2832473,51.558632 69.8813535,52.8035446 65.1738581,52.8035446 C60.4663627,52.8035446 56.6378273,50.0009775 51.760235,50.0009773 C46.8826427,50.0009771 46.2350434,58.2104048 40.8606096,58.2104048 C35.3839122,58.2104048 34.9408402,50.0009771 30.0632479,50.0009773 C25.1856555,50.0009775 21.3571202,52.8035446 16.6496248,52.8035446 C11.9421294,52.8035446 8.54023555,51.558632 4.35517085,49.7561762 C6.05611692,45.0232391 16.6496254,37.6970358 26.3395774,46.4884797 C18.2151759,49.5052938 3.11311111,45.0232391 0.717608,32.6674256 C7.52761998,27.4403514 25.1856547,28.905592 28.1133325,40.4348227 C14.8851344,40.4348237 7.52761983,30.3708326 8.0329701,15.4513251 C26.3395774,14.2531856 35.486175,21.5793888 33.8048681,35.0737209 C19.2996431,33.3013139 16.6496254,12.7879449 26.3395775,0 C36.9576781,2.53126035 56.087216,21.5793882 40.8606096,33.8693808 C25.7362669,21.5793882 44.8658048,2.53126035 55.4839053,0 L55.4839053,0 Z" id="Path-1" stroke="#F38A8A" stroke-width="1.5"></path>
            <ellipse id="Oval-1" fill="#F38A8A" cx="37.8730564" cy="44.6898396" rx="1.47150291" ry="2.93048128"></ellipse>
            <ellipse id="Oval-1-Copy" fill="#F38A8A" cx="43.3911922" cy="44.6898396" rx="1.47150291" ry="2.93048128"></ellipse>
            <ellipse id="Oval-1-Copy-2" fill="#F38A8A" cx="41" cy="58.7927807" rx="3.4948194" ry="3.47994652"></ellipse>
        </g>
    </g>
</svg>